<svg preserveAspectRatio="none" width="100%" height="100%" overflow="visible" style="display: block;" viewBox="0 0 20 20" fill="none" xmlns="http://www.w3.org/2000/svg">
<g id="star">
<g id="Vector" opacity="0">
</g>
<path id="Vector_2" d="M12.825 4.34167L14 6.69167C14.1583 7.01667 14.5833 7.325 14.9417 7.39167L17.0667 7.74167C18.425 7.96667 18.7417 8.95 17.7667 9.93333L16.1083 11.5917C15.8333 11.8667 15.675 12.4083 15.7667 12.8L16.2417 14.85C16.6167 16.4667 15.75 17.1 14.325 16.25L12.3333 15.0667C11.975 14.85 11.375 14.85 11.0167 15.0667L9.025 16.25C7.6 17.0917 6.73333 16.4667 7.10833 14.85L7.58333 12.8C7.65833 12.4 7.5 11.8583 7.225 11.5833L5.56667 9.925C4.59167 8.95 4.90833 7.96667 6.26667 7.73333L8.39167 7.38333C8.75 7.325 9.175 7.00833 9.33333 6.68333L10.5083 4.33333C11.15 3.06667 12.1833 3.06667 12.825 4.34167Z" fill="currentColor"/>
<path id="Vector_3" d="M6.66667 4.79167H1.66667C1.325 4.79167 1.04167 4.50833 1.04167 4.16667C1.04167 3.825 1.325 3.54167 1.66667 3.54167H6.66667C7.00833 3.54167 7.29167 3.825 7.29167 4.16667C7.29167 4.50833 7.00833 4.79167 6.66667 4.79167Z" fill="currentColor"/>
<path id="Vector_4" d="M4.16667 16.4583H1.66667C1.325 16.4583 1.04167 16.175 1.04167 15.8333C1.04167 15.4917 1.325 15.2083 1.66667 15.2083H4.16667C4.50833 15.2083 4.79167 15.4917 4.79167 15.8333C4.79167 16.175 4.50833 16.4583 4.16667 16.4583Z" fill="currentColor"/>
<path id="Vector_5" d="M2.5 10.625H1.66667C1.325 10.625 1.04167 10.3417 1.04167 10C1.04167 9.65833 1.325 9.375 1.66667 9.375H2.5C2.84167 9.375 3.125 9.65833 3.125 10C3.125 10.3417 2.84167 10.625 2.5 10.625Z" fill="currentColor"/>
</g>
</svg>
