<svg preserveAspectRatio="none" width="100%" height="100%" overflow="visible" style="display: block;" viewBox="0 0 20 20" fill="none" xmlns="http://www.w3.org/2000/svg">
<g id="note">
<path id="Vector" d="M6.90833 5.24167C6.55833 5.24167 6.28333 4.95833 6.28333 4.61667V2.29167C6.28333 1.95 6.55833 1.66667 6.90833 1.66667C7.25833 1.66667 7.53333 1.95 7.53333 2.29167V4.60833C7.53333 4.95833 7.25833 5.24167 6.90833 5.24167Z" fill="currentColor"/>
<path id="Vector_2" d="M13.0917 5.24167C12.7417 5.24167 12.4667 4.95833 12.4667 4.61667V2.29167C12.4667 1.94167 12.75 1.66667 13.0917 1.66667C13.4417 1.66667 13.7167 1.95 13.7167 2.29167V4.60833C13.7167 4.95833 13.4417 5.24167 13.0917 5.24167Z" fill="currentColor"/>
<path id="Vector_3" d="M16.3083 3.75C15.7583 3.34167 14.9667 3.73333 14.9667 4.425V4.50833C14.9667 5.48333 14.2667 6.38333 13.2917 6.48333C12.1667 6.6 11.2167 5.71667 11.2167 4.61667V3.75C11.2167 3.29167 10.8417 2.91667 10.3833 2.91667H9.61667C9.15833 2.91667 8.78333 3.29167 8.78333 3.75V4.61667C8.78333 5.275 8.44167 5.85833 7.925 6.18333C7.85 6.23333 7.76667 6.275 7.68333 6.31667C7.60833 6.35833 7.525 6.39167 7.43333 6.41667C7.33333 6.45 7.225 6.475 7.10833 6.48333C6.975 6.5 6.84167 6.5 6.70833 6.48333C6.59167 6.475 6.48333 6.45 6.38333 6.41667C6.3 6.39167 6.21667 6.35833 6.13333 6.31667C6.05 6.275 5.96667 6.23333 5.89167 6.18333C5.36667 5.81667 5.03333 5.18333 5.03333 4.50833V4.425C5.03333 3.78333 4.35 3.4 3.80833 3.675C3.8 3.68333 3.79167 3.68333 3.78333 3.69167C3.75 3.70833 3.725 3.725 3.69167 3.75C3.66667 3.775 3.63333 3.79167 3.60833 3.81667C3.375 4 3.16667 4.20833 2.99167 4.43333C2.9 4.53333 2.825 4.64167 2.75833 4.75C2.75 4.75833 2.74167 4.76667 2.73333 4.78333C2.65833 4.89167 2.59167 5.01667 2.53333 5.13333C2.51667 5.15 2.50833 5.15833 2.50833 5.175C2.45833 5.275 2.40833 5.375 2.375 5.48333C2.35 5.525 2.34167 5.55833 2.325 5.6C2.275 5.725 2.24167 5.85 2.20833 5.975C2.175 6.09167 2.15 6.21667 2.13333 6.34167C2.11667 6.43333 2.10833 6.525 2.1 6.625C2.09167 6.74167 2.08333 6.85833 2.08333 6.975V14.275C2.08333 16.5167 3.9 18.3333 6.14167 18.3333H13.8583C16.1 18.3333 17.9167 16.5167 17.9167 14.275V6.975C17.9167 5.65 17.2833 4.49167 16.3083 3.75ZM10 14.5167H6.13333C5.79167 14.5167 5.50833 14.2333 5.50833 13.8917C5.50833 13.5417 5.79167 13.2583 6.13333 13.2583H10C10.35 13.2583 10.625 13.5417 10.625 13.8917C10.625 14.2333 10.35 14.5167 10 14.5167ZM12.3167 11.425H6.13333C5.79167 11.425 5.50833 11.1417 5.50833 10.8C5.50833 10.45 5.79167 10.1667 6.13333 10.1667H12.3167C12.6667 10.1667 12.95 10.45 12.95 10.8C12.95 11.1417 12.6667 11.425 12.3167 11.425Z" fill="currentColor"/>
<g id="Vector_4" opacity="0">
</g>
</g>
</svg>
