<svg preserveAspectRatio="none" width="100%" height="100%" overflow="visible" style="display: block;" viewBox="0 0 16.6691 15.8346" fill="none" xmlns="http://www.w3.org/2000/svg">
<g id="Star">
<path id="Star_2" d="M13.266 9.85C13.0501 10.0592 12.951 10.3617 13.0001 10.6583L13.741 14.7583C13.8035 15.1058 13.6568 15.4575 13.366 15.6583C13.081 15.8667 12.7018 15.8917 12.391 15.725L8.70012 13.8C8.57179 13.7317 8.42929 13.695 8.28345 13.6908H8.05762C7.97929 13.7025 7.90262 13.7275 7.83262 13.7658L4.14096 15.7C3.95846 15.7917 3.75179 15.8242 3.54929 15.7917C3.05596 15.6983 2.72679 15.2283 2.80762 14.7325L3.54929 10.6325C3.59846 10.3333 3.49929 10.0292 3.28346 9.81667L0.274289 6.9C0.0226219 6.65583 -0.0648781 6.28917 0.0501219 5.95833C0.161789 5.62833 0.446789 5.3875 0.790955 5.33333L4.93262 4.7325C5.24762 4.7 5.52429 4.50833 5.66596 4.225L7.49095 0.483333C7.53429 0.4 7.59012 0.323333 7.65762 0.258333L7.73262 0.2C7.77179 0.156667 7.81679 0.120833 7.86679 0.0916667L7.95762 0.0583333L8.09929 0H8.45012C8.76345 0.0325 9.03929 0.22 9.18345 0.5L11.0326 4.225C11.166 4.4975 11.4251 4.68667 11.7243 4.7325L15.866 5.33333C16.216 5.38333 16.5085 5.625 16.6243 5.95833C16.7335 6.2925 16.6393 6.65917 16.3826 6.9L13.266 9.85Z" fill="var(--fill-0, #FAD356)"/>
</g>
</svg>
