<svg viewBox="0 0 24 24" fill="none" xmlns="http://www.w3.org/2000/svg">
<path transform="translate(7.21 2)" d="M8.312 8.3057C7.898 8.3057 7.562 7.9697 7.562 7.5557V4.5237C7.562 2.8567 6.207 1.4997 4.54 1.4997C3.729 1.5277 2.969 1.8077 2.395 2.3757C1.821 2.9447 1.503 3.7017 1.5 4.5087V7.5557C1.5 7.9697 1.164 8.3057 0.75 8.3057C0.336 8.3057 0 7.9697 0 7.5557V4.5237C0.005 3.2947 0.48 2.1607 1.339 1.3107C2.197 0.4597 3.349 0.0347 4.543 -0.0003C7.034 -0.0003 9.062 2.0297 9.062 4.5237V7.5557C9.062 7.9697 8.726 8.3057 8.312 8.3057" fill="currentColor"/>
<path transform="translate(2 6.475)" d="M5.0078 1.5C3.0738 1.5 1.4998 3.072 1.4998 5.005V10.521C1.4998 12.453 3.0738 14.025 5.0078 14.025H14.4918C16.4258 14.025 17.9998 12.453 17.9998 10.521V5.005C17.9998 3.072 16.4258 1.5 14.4918 1.5H5.0078ZM14.4918 15.525H5.0078C2.2468 15.525 -0.0002 13.28 -0.0002 10.521V5.005C-0.0002 2.245 2.2468 0 5.0078 0H14.4918C17.2538 0 19.4998 2.245 19.4998 5.005V10.521C19.4998 13.28 17.2538 15.525 14.4918 15.525V15.525Z" fill="currentColor"/>
</svg>
