<svg viewBox="0 0 48 48" fill="none" xmlns="http://www.w3.org/2000/svg">
<path d="M37.08 8.24L26.08 4.12C24.94 3.7 23.08 3.7 21.94 4.12L10.94 8.24C8.82 9.04 7.1 11.52 7.1 13.78V29.98C7.1 31.6 8.16 33.74 9.46 34.7L20.46 42.92C22.4 44.38 25.58 44.38 27.52 42.92L38.52 34.7C39.82 33.72 40.88 31.6 40.88 29.98V13.78C40.9 11.52 39.18 9.04 37.08 8.24ZM30.96 19.44L22.36 28.04C22.06 28.34 21.68 28.48 21.3 28.48C20.92 28.48 20.54 28.34 20.24 28.04L17.04 24.8C16.46 24.22 16.46 23.26 17.04 22.68C17.62 22.1 18.58 22.1 19.16 22.68L21.32 24.84L28.86 17.3C29.44 16.72 30.4 16.72 30.98 17.3C31.56 17.88 31.56 18.86 30.96 19.44Z" fill="currentColor"/>
</svg>
