<svg preserveAspectRatio="none" width="100%" height="100%" overflow="visible" style="display: block;" viewBox="0 0 13.3333 13.3333" fill="none" xmlns="http://www.w3.org/2000/svg">
<g id="Info Square">
<path id="Info Square_2" fill-rule="evenodd" clip-rule="evenodd" d="M3.78 0H9.56C11.82 0 13.3333 1.58667 13.3333 3.94667V9.394C13.3333 11.7473 11.82 13.3333 9.56 13.3333H3.78C1.52 13.3333 0 11.7473 0 9.394V3.94667C0 1.58667 1.52 0 3.78 0ZM6.66 4.70733C6.34667 4.70733 6.08667 4.44667 6.08667 4.12733C6.08667 3.80067 6.34667 3.54067 6.67333 3.54067C6.99333 3.54067 7.25333 3.80067 7.25333 4.12733C7.25333 4.44667 6.99333 4.70733 6.66 4.70733ZM7.24667 9.18733C7.24667 9.50733 6.98667 9.76733 6.66 9.76733C6.34 9.76733 6.08 9.50733 6.08 9.18733V6.24067C6.08 5.92 6.34 5.654 6.66 5.654C6.98667 5.654 7.24667 5.92 7.24667 6.24067V9.18733Z" fill="var(--fill-0, #113B34)"/>
</g>
</svg>
